<svg width="18" height="19" viewBox="0 0 18 19" fill="none" xmlns="http://www.w3.org/2000/svg">
<path d="M6.75 1.375C6.75 1.99727 7.25273 2.5 7.875 2.5C12.2238 2.5 15.75 6.02617 15.75 10.375C15.75 10.9973 16.2527 11.5 16.875 11.5C17.4973 11.5 18 10.9973 18 10.375C18 4.78164 13.4684 0.25 7.875 0.25C7.25273 0.25 6.75 0.752734 6.75 1.375ZM6.75 4.75C6.75 5.37227 7.25273 5.875 7.875 5.875C10.3605 5.875 12.375 7.88945 12.375 10.375C12.375 10.9973 12.8777 11.5 13.5 11.5C14.1223 11.5 14.625 10.9973 14.625 10.375C14.625 6.64844 11.6016 3.625 7.875 3.625C7.25273 3.625 6.75 4.12773 6.75 4.75ZM3.375 5.3125C3.375 4.38086 2.61914 3.625 1.6875 3.625C0.755859 3.625 0 4.38086 0 5.3125V13.1875C0 15.9824 2.26758 18.25 5.0625 18.25C7.85742 18.25 10.125 15.9824 10.125 13.1875C10.125 10.3926 7.85742 8.125 5.0625 8.125H4.5V11.5H5.0625C5.99414 11.5 6.75 12.2559 6.75 13.1875C6.75 14.1191 5.99414 14.875 5.0625 14.875C4.13086 14.875 3.375 14.1191 3.375 13.1875V5.3125Z" fill="#475569"/>
</svg>
