<svg width="40" height="40" viewBox="0 0 40 40" fill="none" xmlns="http://www.w3.org/2000/svg">
<g clip-path="url(#clip0_55_9870)">
<rect width="40" height="40" fill="#E4C5FF"/>
<path d="M8.1256 30.6833C7.77672 26.4433 9.02484 20.0109 9.3867 15.7722C9.88552 9.92918 14.3521 4.62037 20.6236 6.56061C22.3412 7.09197 22.4248 8.18641 23.7554 8.86375C25.5709 9.78792 27.0175 10.0948 28.6633 11.3954C30.021 12.2623 32.0201 14.5681 31.7507 16.2769C32.162 18.5731 31.8866 20.3227 31.6779 22.5859C31.6304 23.1009 32.2973 23.954 32.2582 24.8724C32.0585 29.5681 24.8596 31.8758 23.419 33.9678C23.9152 35.3225 27.6307 34.2174 28.6964 35.6165C26.8726 36.7676 26.3782 34.0618 25.3907 37.5149C21.8885 37.8071 16.8665 38.9784 13.4516 37.4099C12.878 36.6882 13.0325 36.9505 12.9462 35.9067C12.267 35.8124 10.3937 35.7499 9.98506 35.5224C11.9363 34.5795 14.8047 35.0508 15.9951 33.6451C15.7999 32.5338 13.4088 31.0742 12.626 29.9351C11.638 28.4972 10.8755 26.9327 10.0824 25.3904C9.53428 27.4771 8.98972 28.7521 8.1256 30.6833Z" fill="#241D17"/>
<path d="M22.4591 9.96337C23.6448 9.70616 26.3523 10.7807 27.3363 11.4178C27.3641 11.4358 27.3916 11.4541 27.419 11.4727C27.6534 11.3788 27.814 11.6673 28.6633 11.3954C30.021 12.2623 32.0201 14.5681 31.7507 16.2769C30.883 17.2242 31.4546 20.1633 30.8943 20.8253C30.3727 20.6835 30.295 19.9784 30.1726 19.4289C29.7806 17.6691 24.9212 14.202 23.2814 14.4465C22.4525 12.6215 21.7725 12.3909 22.4145 10.3539L22.4591 9.96337Z" fill="url(#paint0_linear_55_9870)"/>
<path d="M22.4592 9.96337C23.6449 9.70616 26.3523 10.7807 27.3363 11.4178C27.3641 11.4358 27.3917 11.4541 27.4191 11.4727L27.2905 11.7525C26.585 11.7176 26.8 11.7568 26.2055 11.3091C25.8596 11.8692 26.4128 12.4327 26.0072 13.0696C24.0137 13.0209 23.8858 11.3492 22.4146 10.3539L22.4592 9.96337Z" fill="#998D8D"/>
<path d="M12.9463 35.9067C14.9144 36.1495 16.1411 33.6953 17.3179 33.7647C18.9516 33.861 20.6527 34.0559 22.3563 34.0617C23.1269 34.5605 24.9484 35.5736 25.1337 36.4541C25.219 36.8598 25.0866 37.1051 25.3908 37.5149C21.8886 37.8071 16.8666 38.9784 13.4517 37.4099C12.8781 36.6882 13.0326 36.9505 12.9463 35.9067Z" fill="#FACA9A"/>
<path d="M17.729 9.96149C18.4061 11.1416 18.7048 11.4157 20.1928 11.5793C21.5869 11.7325 21.2992 13.0107 20.7096 13.7485C16.7174 13.1541 14.5124 15.991 12.3664 16.666C12.0071 14.4347 15.4475 10.7019 17.729 9.96149Z" fill="#998D8D"/>
<path d="M17.729 9.96149C18.768 9.77264 21.5711 9.48583 22.4593 9.96339L22.4147 10.3539C21.7727 12.3909 22.4527 12.6215 23.2816 14.4465C22.1071 14.5424 21.6313 14.4435 20.7096 13.7485C21.2992 13.0107 21.5869 11.7325 20.1928 11.5793C18.7048 11.4157 18.4061 11.1416 17.729 9.96149Z" fill="#989290"/>
<path d="M13.5375 17.4335C17.48 13.9683 24.9321 15.0065 28.5461 18.5669C29.8486 19.8501 30.1103 23.4531 30.3756 25.3243C26.0608 23.1325 24.8046 23.3392 20.3556 25.338C24.8939 24.9328 26.1357 24.2126 30.2652 26.5178C29.4758 27.9049 28.9377 28.9733 27.8052 30.0976C20.781 37.0706 12.6479 32.3666 10.4132 23.819C10.0687 22.5012 9.87216 21.6132 10.2585 20.262L10.5092 20.3188C10.8873 21.0421 11.933 23.3702 12.6173 23.6029C13.0234 23.1945 12.8103 22.3195 12.7196 21.768L12.1408 21.3906L12.551 20.9294L12.0679 20.9134C11.1449 19.8009 12.6891 18.2027 13.5375 17.4335Z" fill="#FACA9A"/>
<path d="M14.0168 20.1889C16.0315 20.2096 19.0983 21.5444 19.5623 23.6259C19.5356 24.2678 19.1248 25.0258 18.5867 25.3532C17.9557 24.301 19.029 24.4944 18.4708 23.1051L18.0824 22.9705C16.6337 23.7482 17.6349 25.1569 15.8984 24.5622C15.2589 24.3432 14.3734 24.0328 14.0462 23.438C14.4217 22.7439 15.4104 22.4969 16.2677 22.1102L16.1078 21.6945L16.3665 21.987L16.2731 22.1035C15.1601 20.8393 14.1843 21.2788 12.7197 21.768L12.1409 21.3906L12.5511 20.9294L14.0168 20.1889Z" fill="#010201"/>
<path d="M13.5375 17.4335C14.1949 18.7024 14.3266 18.4899 15.7118 18.3665L16.0663 19.0404C15.0435 19.1374 14.7434 19.4817 14.0167 20.1889L12.551 20.9294L12.0679 20.9134C11.1449 19.8009 12.6891 18.2027 13.5375 17.4335Z" fill="#C6A27D"/>
<path d="M15.7119 18.3665C16.6582 18.7232 17.7679 19.0276 18.3915 19.8071L18.248 19.9984C17.3805 19.8215 16.8271 19.4667 16.0664 19.0404L15.7119 18.3665Z" fill="#624831"/>
<path d="M14.6387 27.1861C15.0256 27.161 17.4621 28.6123 18.5879 28.9782C20.9037 29.7308 23.0504 28.937 24.5923 29.414L24.7809 29.8665L24.4795 29.9784C23.5607 29.9291 22.5193 30.352 21.6162 30.375C19.7365 30.4226 14.7597 29.4127 14.6387 27.1861Z" fill="#A1592D"/>
<path d="M23.9787 21.1392C25.0566 20.9783 27.9761 20.6335 28.6528 21.6188L28.1949 21.6522C27.0996 21.4299 24.0982 21.8803 23.6643 21.5689L23.9787 21.1392Z" fill="#A1592D"/>
<path d="M10.7432 13.9425C11.7926 11.4814 12.3839 8.57108 15.0867 7.52359C16.1413 7.11489 19.1354 7.10953 20.1541 7.55014C20.3021 7.61424 20.4442 7.6912 20.5787 7.78014L20.7197 8.24526L20.4122 8.64151C14.7485 9.31561 15.127 9.686 11.8225 14.4178L10.7432 13.9425Z" fill="#989290"/>
<path d="M10.7431 13.9425L11.8224 14.4178C11.1624 15.7913 10.9582 18.2658 10.3178 18.959L10.0737 18.6931C10.1359 16.6316 10.287 15.9225 10.7431 13.9425Z" fill="#998D8D"/>
</g>
<defs>
<linearGradient id="paint0_linear_55_9870" x1="30.6084" y1="13.6671" x2="27.0536" y2="16.9949" gradientUnits="userSpaceOnUse">
<stop stop-color="#767071"/>
<stop offset="1" stop-color="#898686"/>
</linearGradient>
<clipPath id="clip0_55_9870">
<rect width="40" height="40" fill="white"/>
</clipPath>
</defs>
</svg>
