<svg width="732" height="732" viewBox="0 0 732 732" fill="none" xmlns="http://www.w3.org/2000/svg">
<path d="M210.475 158.866C205.379 178.005 192.239 193.566 175.096 203.436C137.026 225.361 79.7134 215.797 57.0998 175.907C41.132 147.741 39.7841 111.545 47.993 80.0934C57.9184 42.0657 91.9334 8.69956 132.027 4.37692C142.446 3.25355 156.06 4.40231 166.931 4.42692L245.891 4.79779L402.604 5.7023L443.878 5.90399C460.782 5.932 477.689 5.02383 494.074 9.4958C518.593 15.9717 540.699 33.773 552.591 56.1467C566.984 83.2258 569.505 122.487 560.662 151.763C542.881 210.632 487.798 256.406 438.742 289.699C415.767 305.03 392.624 320.109 369.317 334.934C310.315 372.644 239.383 418.606 224.169 492.523C210.311 559.851 258.86 644.416 325.134 664.243C330.855 666.007 336.708 667.309 342.638 668.137C342.43 654.672 342.443 639.307 342.847 625.848C333.367 625.93 323.89 625.96 314.41 625.936C310.156 625.924 302.779 626.056 298.682 625.632C298.761 617.117 298.886 608.602 298.953 600.086C298.997 594.478 298.467 585.998 298.959 580.71C302.577 581.022 307.029 581.022 310.684 580.937C321.25 580.691 332.305 581.268 342.832 580.792C342.446 566.006 343.251 550.834 342.797 536.098C350.903 536.2 359.008 536.237 367.114 536.205C371.285 536.206 378.014 536.391 381.917 535.95C381.688 545.787 381.576 555.625 381.578 565.464C381.577 570.269 381.851 576.226 381.53 580.887C397.36 580.248 419.656 580.606 435.577 581.248L435.733 552.912C435.735 547.937 435.902 541.036 435.492 536.152L477.286 536.191C483.788 536.19 491.72 535.989 498.091 536.291C497.741 531.655 498.095 526.929 497.988 522.301C497.783 513.369 497.94 504.412 497.483 495.5C510.065 495.791 525.173 496.239 537.799 495.45C537.692 510.983 538.207 526.466 538.079 541.983C538.022 548.931 538.161 557.194 537.601 564.066C548.674 562.912 564.987 564.104 576.714 563.57C576.801 572.466 576.803 581.365 576.717 590.261C576.708 594.735 576.954 601.086 576.717 605.371C590.099 605.468 603.48 605.461 616.862 605.354L616.447 605.78C613.605 608.727 611.028 612.17 608.474 615.395C577.624 654.333 536.449 685.457 489.926 703.748C483.116 706.408 476.223 708.85 469.257 711.069C465.117 712.358 459.901 713.701 455.929 715.047C454.251 715.359 453.234 715.59 451.602 716.082C438.329 719.331 414.015 723.54 400.208 723.648C393.585 724.412 380.316 724.592 373.57 724.169C365.589 723.992 357.62 723.458 349.688 722.565C271.953 714.48 200.616 675.835 151.382 615.138C123.034 579.915 102.049 535.795 95.7092 490.96C86.7682 431.933 103.586 376.687 134.122 326.276C157.913 287 187.213 249.416 202.474 205.591C207.859 190.127 209.939 176.601 211.694 160.412C212.078 158.197 212.248 156.131 212.456 153.896C211.494 155.756 211.131 156.913 210.475 158.866ZM150.981 155.853C152.146 150.998 152.916 147.669 152.034 142.681C150.546 134.287 145.455 126.224 138.024 121.893C130.141 117.298 117.946 119.27 113.927 109.404C112.058 104.244 113.488 95.4676 118.567 92.4097C120.801 91.0652 124.309 90.2121 126.961 90.1271C137.968 89.7741 148.996 90.4409 160.014 90.5253L189.405 90.7217C194.241 90.7336 201.088 90.5286 205.786 90.8258C204.194 85.1429 202.704 78.8884 200.464 73.5414C191.311 51.7054 171.257 34.6598 147.308 32.2278C145.684 32.0629 142.302 31.7783 140.73 32.0085C129.931 32.6872 121.782 34.2239 112.178 39.5221C83.4619 55.3636 69.304 91.4132 71.4904 123.096C72.6292 140.859 78.2544 160.621 92.2154 172.578C102.02 180.974 116.15 184.789 128.437 179.669C139.281 175.151 146.912 166.855 150.981 155.853Z" fill="url(#paint0_linear_240_72)"/>
<path d="M373.57 724.169C375.797 722.901 396.788 723.098 400.208 723.648C393.585 724.412 380.316 724.592 373.57 724.169Z" fill="#008FDC"/>
<path d="M451.602 716.082C452.812 714.937 452.458 713.88 454.344 713.202C455.569 713.816 455.172 713.583 455.929 715.047C454.251 715.359 453.234 715.59 451.602 716.082Z" fill="#008FDC"/>
<path d="M656.941 400.515C677.287 399.069 683.489 410.523 685.187 429.072C686.578 444.27 686.638 475.312 665.477 476.506C650.445 478.318 639.668 472.106 637.127 456.425C634.771 441.889 633.994 422.055 642.211 409.11C645.36 404.152 651.37 401.544 656.941 400.515ZM662.338 465.469C673.039 460.993 671.686 448.95 672.196 439.002C672.664 429.857 671.882 410.918 658.992 411.384C647.555 416.957 649.875 429.688 649.246 440.302C648.736 448.889 649.586 467.099 662.338 465.469Z" fill="#008FDC"/>
<path d="M508.711 299.173C514.161 298.674 520.693 300.308 524.964 303.88C531 308.928 532.985 317.256 533.717 324.856C534.881 336.959 534.688 352.809 526.87 362.866C523.34 367.406 517.799 368.615 512.464 369.162C496.343 370.045 487.838 360.258 486.812 344.869C485.582 326.422 484.805 301.265 508.711 299.173ZM512.034 358.313C520.765 354.415 521.184 344.216 521.285 335.834C521.395 326.624 521.279 309.031 508.097 309.639C503.9 312.356 501.165 314.81 500.4 319.994C498.984 329.576 495.337 361.053 512.034 358.313Z" fill="#008FDC"/>
<path d="M428.697 367.61C443.132 367.435 449.817 377.7 451.158 390.791C452.347 402.394 452.298 416.448 444.999 426.343C442.116 430.252 436.415 431.71 431.839 432.275C404.247 433.461 405.724 400.982 409.971 381.716C411.825 373.31 420.402 368.276 428.697 367.61ZM431.523 422.029C435.038 420.287 436.455 419.65 437.795 415.615C439.718 409.826 439.638 404.672 439.642 398.508C439.648 391.679 439.361 380.638 431.416 377.955C430.142 377.525 428.937 377.627 427.614 377.746C424.09 379.423 422.953 380.723 421.691 384.619C418.988 392.968 416.151 424.532 431.523 422.029Z" fill="#008FDC"/>
<path d="M520.159 404.426C533.654 404.714 547.154 404.695 560.648 404.367C560.611 417.44 561.002 432.383 560.563 445.262C547.567 445.663 533.575 445.292 520.433 445.456C519.975 432.707 520.292 417.455 520.159 404.426Z" fill="#008FDC"/>
<path d="M433.802 495.448L434.236 495.516C435.008 496.87 434.67 503.752 434.682 505.756C434.746 515.767 434.55 525.784 434.83 535.795C422.386 535.497 409.399 535.887 396.817 535.777L396.284 535.411C395.202 532.411 395.656 501.196 395.642 495.51C401.799 495.817 409.163 495.671 415.389 495.678C420.923 495.685 428.419 495.863 433.802 495.448Z" fill="#008FDC"/>
<path d="M494.794 452.96L495.337 453.14C496.028 454.343 495.618 487.531 495.608 492.217L459.406 492.233L459.093 492.085C457.98 490.333 458.535 457.613 458.46 452.986C467.039 453.625 475.914 453.141 484.505 453.168C487.935 453.18 491.372 453.203 494.794 452.96Z" fill="#008FDC"/>
<path d="M601.093 470.844C602.07 470.724 601.894 470.767 602.902 470.884C603.087 471.127 603.273 471.368 603.461 471.611C603.742 492.367 603.361 526.694 603.606 546.428L590.175 546.477C589.971 537.97 590.219 528.467 590.292 519.903L590.288 500.786C590.273 496.924 589.995 490.955 590.69 487.415C584.915 491.573 579.005 495.909 573.073 499.807C573.421 494.877 573.494 489.933 573.294 484.997C575.652 482.344 578.318 480.663 581.182 478.655C588.572 473.468 591.949 471.13 601.093 470.844Z" fill="#008FDC"/>
<path d="M584.679 344.642C587.525 344.984 594.025 344.847 596.999 344.839L619.572 344.778C619.906 350.927 619.414 358.977 619.59 365.34C619.672 368.331 619.745 378.3 619.377 380.565C607.796 380.271 596.21 380.262 584.628 380.54C584.398 370.937 584.279 354.109 584.679 344.642Z" fill="#008FDC"/>
<path d="M352.028 422.919L352.396 423.007C353.664 424.641 353.086 444.075 353.082 447.519C353.017 463.882 353.051 480.245 353.183 496.608C348.798 496.674 344.413 496.653 340.03 496.546C339.705 487.764 339.939 477.636 339.951 468.755C340.007 460.743 340.014 452.732 339.972 444.721C339.97 443.468 340.267 440.67 340.09 439.931L339.405 439.954C335.626 443.377 327.167 449.423 322.736 451.903C323.289 448.315 322.683 437.779 324.178 436.502C328.283 432.997 338.345 425.802 343.547 423.535C344.877 422.956 349.673 423.18 351.612 422.967L352.028 422.919Z" fill="#008FDC"/>
<path d="M562.969 243.73C565.413 244.462 586.821 244.358 590.654 244.37L590.19 263.526C590.135 266.239 590.274 271.09 589.832 273.576C581.615 274.065 570.827 273.525 562.16 273.749C562.144 272.724 562.081 269.433 562.192 268.562C562.716 264.485 561.093 246.109 562.969 243.73Z" fill="#008FDC"/>
<path d="M636.739 524.759C644.882 524.828 653.313 525.034 661.421 524.742C661.248 533.032 661.555 541.545 661.317 549.78C654.563 549.226 644.122 549.578 637.127 549.71C636.956 541.393 636.827 533.076 636.739 524.759Z" fill="#008FDC"/>
<path d="M634.6 297.599C638.45 298.043 654.405 297.819 658.485 297.451C658.68 305.449 658.589 314.155 658.475 322.183C650.665 322.352 642.192 321.672 634.578 322.096C634.755 315.656 634.02 302.921 634.6 297.599Z" fill="#008FDC"/>
<path d="M210.475 158.866C211.131 156.913 211.494 155.756 212.456 153.896C212.248 156.131 212.078 158.197 211.694 160.412L210.475 158.866Z" fill="#38B8FE" fill-opacity="0.0196078"/>
<defs>
<linearGradient id="paint0_linear_240_72" x1="533.941" y1="681.186" x2="243.5" y2="450" gradientUnits="userSpaceOnUse">
<stop stop-color="#008FDB"/>
<stop offset="1" stop-color="#44BDFF"/>
</linearGradient>
</defs>
</svg>
