<svg width="530" height="535" viewBox="0 0 530 535" fill="none" xmlns="http://www.w3.org/2000/svg">
<g clip-path="url(#clip0_1_2)">
<path d="M0 0H530V535H0V0Z" fill="#1E1E1E"/>
<path d="M395.735 27.2641C409.803 26.5186 422.675 50.0334 428.366 61.0715C437.893 79.5543 441.781 106.972 434.875 126.826C441.421 123.153 447.471 117.363 454.161 114.093C455.635 113.491 457.161 113.351 458.694 113.654C466.201 115.186 467.703 123.05 469.457 129.243C481.424 171.491 470.89 210.118 433.82 235.107C433.557 238.756 433.664 243.782 433.664 247.526L433.675 268.771L433.665 364.377L433.661 394.532C433.65 406.494 434.09 417.733 431.259 429.456C427.528 444.681 419.667 458.581 408.542 469.625C397.238 480.742 382.97 488.366 367.445 491.583C356.168 493.973 343.562 493.426 331.973 493.419L294.953 493.421L155.356 493.408L146.279 493.377C140.483 493.319 135.601 493.15 129.86 492.208C112.707 489.297 96.9154 481.03 84.7477 468.593C73.7567 457.164 66.1187 442.933 62.6685 427.456C60.4064 416.996 60.9239 402.919 60.9355 391.982L60.9507 353.464L60.9425 260.832C60.9545 248.388 61.0545 235.836 60.9584 223.402C60.7899 201.614 69.5247 180.426 85.247 165.143C96.1148 154.605 109.663 147.247 124.419 143.871C136.059 141.235 148.576 141.635 160.492 141.629H195.318C230.386 141.626 265.954 141.316 300.985 141.71C303.578 124.916 312.096 106.732 324.402 94.9545C337.591 82.3327 355.782 75.3436 368.685 62.0797C375.079 55.9271 378.985 48.3615 382.859 40.5232C386.084 33.999 387.633 28.3785 395.735 27.2641Z" fill="#55EDF5"/>
<path d="M138.418 164.95C144.248 164.491 152.812 164.746 158.888 164.75L194.429 164.757L300.096 164.827C300.424 168.945 300.912 173.15 301.806 177.179C306.863 200.608 320.987 221.083 341.092 234.131C362.16 247.528 386.606 250.43 410.695 245.145C410.874 259.455 410.93 273.767 410.862 288.078L410.827 359.528L410.812 394.849C410.809 403.165 411.113 413.669 409.79 421.67C408.163 431.755 403.944 441.245 397.548 449.21C387.963 461.2 373.974 468.849 358.708 470.447C358.277 470.497 357.845 470.54 357.413 470.574C352.551 470.965 345.947 470.805 341.001 470.802L314.72 470.797L231.507 470.8L168.495 470.797L149.805 470.804C144.044 470.8 138.165 470.915 132.472 469.977C121.894 468.158 112.017 463.471 103.918 456.427C91.8674 446.012 84.5499 430.334 83.579 414.529C83.2579 409.301 83.3642 403.665 83.365 398.399L83.3689 373.454L83.3615 293.4L83.3541 243.049C83.3476 235.247 82.928 220.137 84.137 212.799C85.911 202.239 90.576 192.377 97.6143 184.307C108.159 172.399 122.636 165.856 138.418 164.95Z" fill="#1E1E1E"/>
<path d="M332.391 336.272C333.633 336.169 335.3 336.165 336.522 336.386C340.018 337.029 343.106 339.059 345.083 342.013C350.422 349.824 346.793 358.049 342.699 365.324C335.19 378.666 323.684 390.043 311.027 398.512C285.583 415.318 254.525 421.378 224.629 415.369C197.49 409.936 173.161 394.745 157.711 371.609C154.442 366.563 150.57 359.213 149.127 353.53C145.885 340.766 161.418 332.183 171.178 340.163C175.145 343.406 176.798 347.703 179.175 351.992C180.419 354.231 181.813 356.384 183.349 358.433C188.605 365.648 195.079 371.891 202.479 376.882C238.301 400.685 291.042 392.252 315.182 356.033C320.904 347.448 320.531 338.655 332.391 336.272Z" fill="#55EDF5"/>
<path d="M185.443 245.118C221.445 242.846 224.379 300.67 191.928 306.71C176.633 309.344 165.192 296.738 162.913 282.267C160.322 265.816 166.851 247.719 185.443 245.118Z" fill="#55EDF5"/>
<path d="M305.494 248.505C319.735 247.238 330.413 258.547 333.123 271.765C334.788 280.145 333.033 288.843 328.25 295.923C323.949 302.302 318.265 306.492 310.67 307.928C295.897 309.816 284.924 298.725 282.529 284.778C280.918 275.868 282.979 266.685 288.244 259.319C292.45 253.466 298.366 249.631 305.494 248.505Z" fill="#55EDF5"/>
<path d="M399.719 56.1412C414.719 74.6528 419.796 104.262 411.245 126.372C408.683 132.996 404.681 138.8 402.39 145.433C400.576 156.388 411.182 164.147 420.966 161.059C430.159 158.158 441.871 150.142 449.701 144.35C453.208 163.106 451.675 181.947 440.562 198.043C431.129 211.705 417.585 221.115 401.173 224.093C391.949 225.749 382.485 225.513 373.356 223.399C353.936 219.133 337.586 207.06 329.088 188.871C323.339 176.477 321.089 162.746 322.582 149.165C324.344 134.119 330.043 119.846 341.856 109.878C346.918 105.605 352.776 102.212 358.198 98.5334C372.009 89.1638 387.186 79.0841 395.683 64.2843C397.147 61.7351 398.593 59.3051 399.588 56.5125L399.719 56.1412Z" fill="#FF6340"/>
<path d="M402.39 145.433C400.576 156.388 411.182 164.147 420.966 161.059C430.159 158.158 441.871 150.142 449.701 144.35C453.208 163.106 451.675 181.947 440.562 198.043C431.129 211.705 417.585 221.115 401.173 224.093C391.949 225.749 382.485 225.513 373.356 223.399C373.047 221.089 371.459 220.32 370.277 218.371C365.62 210.694 364.312 202.169 365.396 193.305C367.977 172.193 385.101 156.681 401.761 145.366C401.97 145.388 402.18 145.411 402.39 145.433Z" fill="#FFB63C"/>
</g>
<defs>
<clipPath id="clip0_1_2">
<rect width="530" height="535" fill="white"/>
</clipPath>
</defs>
</svg>
