<svg width="732" height="732" viewBox="0 0 732 732" fill="none" xmlns="http://www.w3.org/2000/svg">
<g clip-path="url(#clip0_12_3995)">
<path d="M65.5612 187.404C63.9032 186.25 60.0583 180.572 58.926 178.734C42.4867 152.061 39.7454 115.184 46.837 85.0719C53.5182 56.7027 70.073 32.6506 95.2189 17.5825C105.517 11.4115 117.985 6.01507 129.964 4.5958C134.56 4.05121 141.227 4.26948 146.001 4.30152L168.805 4.38485L257.165 4.9329L418.591 5.81437C429.379 5.9579 440.169 6.03431 450.958 6.0436C465.357 6.0924 477.259 5.44124 491.415 8.93752C515.931 14.9805 537.04 30.5198 550.094 52.1336C566.005 77.9979 569.119 117.549 561.837 146.592C546.85 206.36 489.932 254.127 441.425 287.435C417.466 303.603 393.262 319.406 368.823 334.839C307.775 374.02 231.6 423.866 222.311 502.415C214.393 569.365 264.518 649.864 331.279 666.012C334.987 666.897 338.727 667.636 342.492 668.226C342.475 660.005 342.604 651.667 342.703 643.434C342.761 638.519 342.476 630.308 343.048 625.652C329.815 625.882 311.85 626.089 298.76 625.537C299.198 611.374 299.091 595.418 298.913 581.182C313.541 581.051 328.17 581.05 342.798 581.181C342.829 566.241 343.189 551.161 343.149 536.288L381.695 536.272C381.525 550.238 381.09 566.946 381.607 580.862C399.713 580.819 417.819 580.951 435.922 581.259L435.909 536.252L498.007 536.249C498.086 522.805 498.001 509.361 497.753 495.92C510.899 495.907 524.443 496.06 537.557 495.797C537.612 518.161 538.008 541.689 537.529 563.938C550.208 563.43 563.727 563.938 576.553 563.722C576.604 577.31 576.821 591.84 576.542 605.394C589.731 605.479 602.919 605.493 616.108 605.435C603.689 621.345 593.274 633.803 578.33 647.739C533.637 688.915 477.111 714.97 416.773 722.207C338.181 731.535 259.105 709.23 196.971 660.208C144.088 618.773 103.256 553.714 95.2481 486.451C87.1708 418.604 108.567 366.146 144.63 309.865C157.777 289.347 172.119 268.443 183.891 247.191C191.225 234.073 197.438 220.36 202.466 206.197C203.761 202.547 206.614 191.432 207.462 189.53C210.29 176.642 211.243 169.179 212.187 156.11L211.813 155.302C211.379 155.709 211.252 155.701 211.107 156.269C195.048 219.071 109.29 233.885 66.8408 188.888C66.3582 188.376 65.9987 187.966 65.5612 187.404Z" fill="url(#paint0_linear_12_3995)"/>
<path d="M65.5612 187.404C63.9032 186.25 60.0583 180.572 58.926 178.734C42.4867 152.061 39.7454 115.184 46.837 85.0719C53.5182 56.7027 70.073 32.6506 95.2189 17.5825C105.517 11.4115 117.985 6.01507 129.964 4.5958C134.56 4.05121 141.227 4.26948 146.001 4.30152L168.805 4.38485L257.165 4.9329L418.591 5.81437C429.379 5.9579 440.169 6.03431 450.958 6.0436C465.357 6.0924 477.259 5.44124 491.415 8.93752C489.071 10.4799 486.432 9.11702 483.598 8.63913C478.234 7.73475 472.894 8.38686 467.478 7.62552C464.757 7.24938 464.877 9.42298 460.954 7.1692C459.867 7.08853 459.959 7.23175 459.133 7.63414C454.841 9.72463 449.508 8.887 445.07 8.12347C445.388 8.17825 436.897 9.71991 436.835 9.74219C432.535 11.2932 427.819 14.9949 423.417 16.4956C422.667 16.7514 416.874 16.0255 415.886 16.438C415.82 16.4653 413.34 18.9095 413.001 19.1797C407.782 23.3465 403.561 30.7187 397.276 33.191C396.301 33.5748 395.822 35.5693 395.552 35.6587C394.935 35.863 391.527 36.0572 391.076 36.5288C389.1 38.594 385.984 38.0293 384.374 40.125C383.91 40.7283 382.673 42.0408 381.941 42.0098C377.843 41.8364 377.079 41.9932 374.162 44.8908C372.035 47.0048 362.905 56.5329 360.706 57.4396L360.084 56.6383C357.314 57.219 354.353 57.95 351.692 58.6802C350.141 59.1058 349.928 56.5168 346.585 58.5862C344.272 60.0173 340.922 57.6109 339.473 59.3929C340.753 62.5581 338.757 62.8559 338.054 66.4218C337.542 69.0168 332.57 71.0869 330.622 72.7833C327.099 73.9086 321.171 75.2834 317.208 76.3595C316.002 75.2426 315.858 75.1434 315.024 73.7614C314.749 73.8928 314.475 74.0241 314.201 74.1554L313.894 73.8009L313.259 74.379C313.857 76.1385 314.707 75.2429 315.256 77.4091L314.697 78.2658L314.337 77.721L312.987 77.0744C311.551 77.7926 310.605 78.37 309.988 79.9042C309.293 81.6307 307.326 81.0411 306.678 81.3583C304.312 82.5172 302.034 85.4631 300.114 87.35C299.638 87.8254 296.698 88.109 296.537 88.3604C295.901 89.3565 296.255 90.37 295.029 90.8631C294.478 90.0568 294.255 89.6553 293.802 88.7862C293.11 88.6963 293.42 88.6334 292.861 88.9123L292.567 88.0887L291.862 88.565L291.587 88.1953C290.807 89.6676 290.381 90.6808 289.224 91.8949L288.328 91.8923L289.007 92.0523L288.41 92.0148C287.47 90.715 287.816 90.7806 286.557 90.2839L286.153 90.5401C286.489 91.0096 287.219 91.8352 287.236 92.2854C285.569 93.056 284.26 91.5879 281.885 92.9089C278.623 94.7231 277.079 96.7921 274.655 99.5303L274.151 99.0768C271.198 101.003 267.504 101.485 265.144 104.015C264.651 104.544 263.835 105.073 263.239 105.493L262.78 104.681C259.494 105.871 256.336 106.273 254.416 109.188L253.909 108.256C250.604 107.71 249.165 111.731 247.914 112.36C244.494 114.079 241.355 116.098 238.094 118.194C235.636 119.775 231.044 122.609 228.284 120.791C227.163 120.046 227.72 119.423 225.989 118.876C219.137 120.409 218.716 123.084 213.213 126.315C212.756 126.584 211.18 125.914 210.637 125.66C206.417 129.169 201.254 127.806 197.218 129.457C191.762 131.69 186.023 138.248 180.028 139.538C176.625 140.146 175.961 142.13 173.791 140.565L172.978 141.341C172.432 141.317 169.425 140.848 169.428 140.847C166.773 141.663 163.157 142.671 160.821 144.038C159.495 144.814 159.723 147.356 157.406 147.254C156.365 148.383 156.39 151.455 156.001 153.19C155.391 155.913 152.177 159.188 151.756 161.683C151.659 162.263 151.925 162.143 151.482 163.253C150.49 164.237 148.206 166.044 147.69 166.82L147.743 168.209C146.191 168.745 144.506 169.114 143.648 170.496C144.432 170.943 144.027 170.746 144.862 171.087C144.242 171.532 144.601 171.404 143.764 171.406L143.623 171.735C143.214 172.667 143.153 173.053 142.291 173.587L141.749 173.268L141.949 172.307C139.083 174.416 135.683 178.646 132.171 178.521C125.08 181.145 123.66 181.876 115.935 182.328C113.397 184.025 111.037 183.369 108.221 182.95C105.639 182.565 102.668 181.553 100.335 180.727C98.2867 180.002 97.6671 178.74 96.1463 179.817C95.8799 180.005 92.2049 177.101 91.5106 177.282L89.8083 177.891C86.6091 175.561 83.5979 172.339 80.5256 169.944C79.3713 169.044 77.5726 168.375 76.6242 168C74.6842 167.121 73.3006 167.715 71.3888 168.211C71.1757 168.266 69.0235 167.298 68.4935 167.457C65.702 168.292 66.5883 169.723 63.7766 168.432C63.2999 170.713 62.7312 172.951 62.6965 175.277C63.1588 175.873 64.3198 177.235 64.4976 177.845C65.6769 176.881 65.0529 177.035 66.3535 177.103C67.1624 177.822 67.1422 177.746 67.3918 178.792C67.1692 180.625 66.1509 183.388 65.3016 185.052C64.5226 184.585 64.5675 184.611 63.996 183.9L63.647 183.894C64.2391 185.486 65.4929 185.748 66.0932 187.301L65.5612 187.404Z" fill="#9CA3AF"/>
<path d="M115.935 182.328C92.4785 180.627 79.6327 162.715 74.0417 141.244C68.0205 115.22 70.8737 90.4006 84.2779 66.9913C111.675 19.1445 173.431 20.3991 198.676 69.1606C202.222 76.0108 203.891 83.2509 205.755 90.8487L153.14 90.4475C144.088 90.3344 134.829 89.9788 125.843 90.2204C114.79 90.5176 110.128 103.192 115.56 111.877C118.777 117.248 125.063 117.608 130.491 118.828C146.184 122.356 155.6 138.891 151.555 154.3C148.547 165.757 141.878 172.583 132.171 178.521C125.08 181.145 123.66 181.876 115.935 182.328Z" fill="white"/>
<path d="M212.187 156.11C212.412 155.45 212.451 155.234 212.372 154.54L212.986 154.473C214.105 155.546 214.259 157.099 214.377 158.568C212.589 162.165 213.316 167.29 212.324 170.312C211.286 173.473 209.129 187.813 207.844 189.988L207.462 189.53C210.29 176.642 211.243 169.179 212.187 156.11Z" fill="#9CA3AF"/>
<path d="M657.45 400.454C673.063 399.398 681.576 406.718 684.14 422.279C686.487 436.528 686.978 456.239 678.936 468.926C675.766 473.927 669.982 475.883 664.433 476.755C648.341 477.473 639.933 471.835 636.942 455.183C635.346 446.297 635.32 437.117 636.268 428.14C637.74 414.202 642.41 403.046 657.45 400.454Z" fill="#6B7280"/>
<path d="M507.301 299.302C523.614 298.355 531.208 306.651 533.254 322.418C534.872 334.887 534.874 351.381 527.259 362.142C524.132 366.561 519.101 368.221 513.923 368.901C496.301 371.087 487.942 360.164 486.845 343.768C485.743 327.285 485.428 301.468 507.301 299.302Z" fill="#6B7280"/>
<path d="M426.43 367.843C440.403 366.721 448.281 374.277 450.512 387.61C452.467 399.296 452.455 414.732 445.773 425.096C442.822 429.673 437.985 431.193 432.924 432.081C407.284 434.511 406.458 408.436 408.391 389.965C409.623 378.202 414.252 370.311 426.43 367.843Z" fill="#6B7280"/>
<path d="M520.328 404.737L560.485 404.73L560.524 431.981C560.526 434.624 560.697 443.016 560.285 445.157C546.987 445.243 533.688 445.26 520.39 445.209L520.328 404.737Z" fill="#6B7280"/>
<path d="M396.056 495.792C408.927 495.935 421.799 495.935 434.67 495.794L434.651 535.686C421.819 535.549 408.825 535.874 396.016 535.591L396.056 495.792Z" fill="#6B7280"/>
<path d="M458.504 453.126C470.136 453.529 483.706 453.186 495.487 453.183L495.43 491.999C483.199 492.14 470.774 492.034 458.527 492.041C458.37 479.171 458.507 466.019 458.504 453.126Z" fill="#6B7280"/>
<path d="M594.864 471.256L603.56 471.228L603.509 546.201L590.109 546.209L590.101 526.304C590.057 513.381 590.167 500.457 590.431 487.537C584.743 491.594 578.953 495.351 573.291 499.517C573.333 494.557 573.34 489.596 573.314 484.636C577.075 481.844 591.091 471.416 594.864 471.256Z" fill="#6B7280"/>
<path d="M584.732 344.916C596.212 345.07 608.001 344.94 619.507 344.95L619.457 380.43L584.782 380.38L584.732 344.916Z" fill="#6B7280"/>
<path d="M343.623 423.305C346.649 423.246 349.787 423.289 352.823 423.29L352.884 496.59C348.584 496.6 344.283 496.586 339.982 496.548C340.107 490.139 340.01 483.414 340.017 476.979C339.98 464.461 340.05 451.943 340.226 439.426C335.297 443.335 328.385 448.021 323.12 451.809C323.334 447.07 323.196 441.663 323.168 436.866C329.818 432.793 336.838 427.061 343.623 423.305Z" fill="#6B7280"/>
<path d="M562.255 244.215C571.537 244.4 580.866 244.194 590.168 244.362C590.07 254.103 590.033 263.844 590.057 273.585L562.203 273.646C562.352 263.924 562.25 253.956 562.255 244.215Z" fill="#6B7280"/>
<path d="M636.85 525.03L661.138 525.099L661.165 549.593C653.091 549.63 645.017 549.608 636.943 549.526C637.014 541.361 636.983 533.195 636.85 525.03Z" fill="#6B7280"/>
<path d="M634.741 297.822C642.629 297.957 650.519 297.969 658.407 297.857L658.346 321.894C653.533 322.302 640.315 321.91 634.76 321.906L634.741 297.822Z" fill="#6B7280"/>
</g>
<defs>
<linearGradient id="paint0_linear_12_3995" x1="237.873" y1="90.7465" x2="507.007" y2="695.098" gradientUnits="userSpaceOnUse">
<stop offset="0.36" stop-color="#9CA3AF"/>
<stop offset="1" stop-color="#6B7280"/>
</linearGradient>
<clipPath id="clip0_12_3995">
<rect width="732" height="732" fill="white"/>
</clipPath>
</defs>
</svg>

